<svg>
    <defs>
        <symbol id="icon-delete" xmlns="http://www.w3.org/2000/svg"  viewBox="0 0 26 30">
            <path d="M21 30H5C4.20435 30 3.44129 29.6839 2.87868 29.1213C2.31607 28.5587 2 27.7956 2 27V8C2 7.73478 2.10536 7.48043 2.29289 7.29289C2.48043 7.10536 2.73478 7 3 7C3.26522 7 3.51957 7.10536 3.70711 7.29289C3.89464 7.48043 4 7.73478 4 8V27C4 27.2652 4.10536 27.5196 4.29289 27.7071C4.48043 27.8946 4.73478 28 5 28H21C21.2652 28 21.5196 27.8946 21.7071 27.7071C21.8946 27.5196 22 27.2652 22 27V8C22 7.73478 22.1054 7.48043 22.2929 7.29289C22.4804 7.10536 22.7348 7 23 7C23.2652 7 23.5196 7.10536 23.7071 7.29289C23.8946 7.48043 24 7.73478 24 8V27C24 27.7956 23.6839 28.5587 23.1213 29.1213C22.5587 29.6839 21.7956 30 21 30V30Z"/>
            <path d="M25 6H1C0.734784 6 0.48043 5.89464 0.292893 5.70711C0.105357 5.51957 0 5.26522 0 5C0 4.73478 0.105357 4.48043 0.292893 4.29289C0.48043 4.10536 0.734784 4 1 4H25C25.2652 4 25.5196 4.10536 25.7071 4.29289C25.8946 4.48043 26 4.73478 26 5C26 5.26522 25.8946 5.51957 25.7071 5.70711C25.5196 5.89464 25.2652 6 25 6Z" />
            <path d="M17 6C16.7348 6 16.4804 5.89464 16.2929 5.70711C16.1054 5.51957 16 5.26522 16 5V2H10V5C10 5.26522 9.89464 5.51957 9.70711 5.70711C9.51957 5.89464 9.26522 6 9 6C8.73478 6 8.48043 5.89464 8.29289 5.70711C8.10536 5.51957 8 5.26522 8 5V1C8 0.734784 8.10536 0.48043 8.29289 0.292893C8.48043 0.105357 8.73478 0 9 0H17C17.2652 0 17.5196 0.105357 17.7071 0.292893C17.8946 0.48043 18 0.734784 18 1V5C18 5.26522 17.8946 5.51957 17.7071 5.70711C17.5196 5.89464 17.2652 6 17 6Z"/>
            <path d="M13 25C12.7348 25 12.4804 24.8946 12.2929 24.7071C12.1054 24.5196 12 24.2652 12 24V10C12 9.73478 12.1054 9.48043 12.2929 9.29289C12.4804 9.10536 12.7348 9 13 9C13.2652 9 13.5196 9.10536 13.7071 9.29289C13.8946 9.48043 14 9.73478 14 10V24C14 24.2652 13.8946 24.5196 13.7071 24.7071C13.5196 24.8946 13.2652 25 13 25Z"/>
            <path d="M18 23C17.7348 23 17.4804 22.8946 17.2929 22.7071C17.1054 22.5196 17 22.2652 17 22V12C17 11.7348 17.1054 11.4804 17.2929 11.2929C17.4804 11.1054 17.7348 11 18 11C18.2652 11 18.5196 11.1054 18.7071 11.2929C18.8946 11.4804 19 11.7348 19 12V22C19 22.2652 18.8946 22.5196 18.7071 22.7071C18.5196 22.8946 18.2652 23 18 23Z"/>
            <path d="M8 23C7.73478 23 7.48043 22.8946 7.29289 22.7071C7.10536 22.5196 7 22.2652 7 22V12C7 11.7348 7.10536 11.4804 7.29289 11.2929C7.48043 11.1054 7.73478 11 8 11C8.26522 11 8.51957 11.1054 8.70711 11.2929C8.89464 11.4804 9 11.7348 9 12V22C9 22.2652 8.89464 22.5196 8.70711 22.7071C8.51957 22.8946 8.26522 23 8 23Z"/>
        </symbol>

        <symbol id="icon-checked" viewBox="0 0 30 30" xmlns="http://www.w3.org/2000/svg">
            <rect x="8.34607" y="21.719" width="23.301" height="2.91262" rx="1.45631" transform="rotate(-45 8.34607 21.719)" />
            <rect x="10.2592" y="23.7785" width="8.73786" height="2.91262" rx="1.45631" transform="rotate(-135 10.2592 23.7785)"/>
        </symbol>

        <symbol id="icon-checkbox" viewBox="0 0 30 30" xmlns="http://www.w3.org/2000/svg">
            <path d="M28.5437 29.1262L28.5437 7.62939e-06V7.62939e-06C29.348 7.62939e-06 30 0.65202 30 1.45632V27.6699C30 28.4742 29.348 29.1262 28.5437 29.1262V29.1262Z" />
            <path d="M0.58252 27.6699H29.7087V27.6699C29.7087 28.4742 29.0567 29.1262 28.2524 29.1262H2.03883C1.23453 29.1262 0.58252 28.4742 0.58252 27.6699V27.6699Z" />
        </symbol>

        <symbol id="icon-plus" viewBox="0 0 24 24" xmlns="http://www.w3.org/2000/svg">
            <path d="M12 2a9.95 9.95 0 014.473 1.055l-.895 1.791A7.949 7.949 0 0012 4c-4.41 0-8 3.59-8 8s3.59 8 8 8c1.09 0 2.129-.22 3.076-.615l.771 1.847A9.962 9.962 0 0112 22C6.48 22 2 17.52 2 12S6.48 2 12 2zm9 10v3h3v2h-3v3h-2v-3h-3v-2h3v-3h2zm-.4-8.4L22 5 11 16l-4-4 1.4-1.4 2.6 2.6 9.6-9.6z"/>
        </symbol>

        <symbol id="icon-plus-2" viewBox="0 0 31 31" xmlns="http://www.w3.org/2000/svg">
            <rect x="14" width="3" height="31" rx="1.5" />
            <rect y="14" width="31" height="3" rx="1.5" />
        </symbol>

        <symbol id="icon-edit" viewBox="0 0 30 25" xmlns="http://www.w3.org/2000/svg">
            <path d="M11.3315 0.0439445C8.40962 0.504286 6.10791 2.71648 5.56445 5.58083C5.411 6.40561 5.46854 7.7227 5.68593 8.56665C5.96725 9.6216 6.61301 10.8428 7.30352 11.6164C7.46975 11.7954 7.58484 11.9553 7.56566 11.9809C7.54648 12 7.30991 12.1087 7.04138 12.2238C3.9021 13.592 1.3958 16.5395 0.455932 19.9729C0.0723138 21.3731 -0.106708 23.1186 0.0659202 23.726C0.187399 24.1288 0.532656 24.4868 0.916274 24.5891C1.07612 24.6338 2.64256 24.6594 5.5133 24.6594H9.86097L10.2126 24.4804C10.5003 24.3397 10.5898 24.2502 10.7369 23.9625C11.0182 23.3999 10.9479 22.7989 10.5451 22.3513C10.1487 21.9102 10.1231 21.9102 6.26136 21.9102H2.85355L2.88551 21.7631C3.08372 20.8424 3.21159 20.3949 3.42897 19.8386C4.15146 17.9973 5.60281 16.2646 7.30991 15.2032C8.85078 14.2506 10.2254 13.8478 12.3481 13.7327C13.646 13.6624 14.3877 13.4898 15.2956 13.0614C17.6292 11.9553 19.087 9.78784 19.2021 7.23039C19.2852 5.52968 18.7993 4.008 17.7443 2.6014C16.8556 1.42497 15.4874 0.52986 14.0104 0.165424C13.4222 0.01837 11.9389 -0.0519599 11.3315 0.0439445ZM13.2752 2.95944C14.0232 3.13207 14.5923 3.45814 15.1677 4.03357C15.7495 4.61539 16.0692 5.18442 16.2546 5.95805C16.3953 6.55905 16.3505 7.64597 16.1587 8.22779C15.3467 10.7597 12.2586 11.821 10.0016 10.3441C8.44159 9.3275 7.80222 7.37744 8.42241 5.52329C8.8316 4.3085 9.90573 3.31748 11.1781 2.98501C11.7535 2.83796 12.6997 2.81878 13.2752 2.95944Z"/>
            <path d="M24.7837 8.36844C24.6046 8.4132 23.6008 9.39142 20.0652 12.9143C16.9067 16.0664 15.5257 17.4858 15.4234 17.6904C15.3403 17.8502 14.8799 19.1673 14.4004 20.6186C13.4477 23.4894 13.4477 23.4638 13.7418 23.9881C13.9273 24.3206 14.3109 24.5763 14.7584 24.6722L15.1229 24.7489L17.6036 23.9242C18.9654 23.4766 20.257 23.029 20.468 22.9331C20.8132 22.7733 21.2927 22.313 25.3655 18.2274C29.6876 13.8861 29.8858 13.6816 29.9561 13.3811C30.0392 13.0358 30.0073 12.7864 29.8346 12.4476C29.7707 12.3261 28.8564 11.3735 27.8078 10.3249C26.2222 8.75206 25.8578 8.41959 25.6468 8.36205C25.3463 8.27893 25.0905 8.27893 24.7837 8.36844ZM25.9984 12.3517L26.7337 13.0869L23.0638 16.7569L19.4002 20.4204L18.3325 20.7529C17.7507 20.9319 17.252 21.079 17.2328 21.079C17.2072 21.079 17.3415 20.5995 17.5269 20.0176L17.8593 18.9563L21.5293 15.2864C23.5497 13.266 25.212 11.6164 25.2312 11.6164C25.2504 11.6164 25.5956 11.9489 25.9984 12.3517Z"/>
        </symbol>

        <symbol id="icon-edit-2"  viewBox="0 0 30 30" xmlns="http://www.w3.org/2000/svg">
            <g clip-path="url(#clip0_102_5)">
            <path d="M23.3899 11.8233C23.3899 11.6908 23.4974 11.5832 23.63 11.5832C23.7625 11.5832 23.8701 11.6908 23.8701 11.8234V25.3383C23.8701 27.3066 22.2679 28.9088 20.2995 28.9088H4.07065C2.10219 28.9088 0.5 27.3066 0.5 25.3383V9.10934C0.5 7.14097 2.10218 5.53882 4.07065 5.53882H20.2995C20.4321 5.53882 20.5396 5.64634 20.5396 5.77891C20.5396 5.91149 20.4321 6.01901 20.2995 6.01901H4.07065C2.36634 6.01901 0.980252 7.405 0.980252 9.10934V25.3383C0.980252 27.0426 2.36633 28.4286 4.07065 28.4286H20.2995C22.0038 28.4286 23.3899 27.0426 23.3899 25.3383V11.8233Z" />
            <path d="M28.9761 1.61378L28.9762 1.61395C29.3146 1.95196 29.5 2.39938 29.5 2.87777C29.5 3.35616 29.3146 3.80357 28.9761 4.14212L16.2998 16.818C16.3 16.8178 16.2999 16.818 16.2994 16.8184C16.297 16.8207 16.2866 16.8308 16.2699 16.8462C16.2506 16.864 16.2258 16.8864 16.1992 16.9091C16.172 16.9323 16.1468 16.9525 16.1262 16.9675C16.119 16.9728 16.1136 16.9765 16.11 16.9789L12.1776 18.7292C12.1456 18.7434 12.1126 18.7501 12.0802 18.7501C12.0173 18.7501 11.9559 18.7255 11.9101 18.6797L11.9099 18.6796C11.8398 18.6095 11.82 18.5033 11.8605 18.4124L11.8606 18.4123L13.611 14.4797C13.6134 14.4761 13.6171 14.4707 13.6224 14.4634C13.6373 14.4429 13.6575 14.4177 13.6807 14.3906C13.7277 14.3354 13.7708 14.2911 13.7706 14.2914L13.4331 13.9539L13.7706 14.2914L26.4478 1.61378L26.4479 1.61371C27.1441 0.917182 28.2791 0.916818 28.9761 1.61378ZM15.8034 16.5896L15.8695 16.5602L15.9246 16.5132C15.9453 16.4956 15.9617 16.4787 15.974 16.4649L28.6366 3.80231C28.8827 3.55625 29.0198 3.22649 29.0198 2.87777C29.0198 2.5297 28.8833 2.19974 28.6368 1.95369C28.1368 1.45292 27.2879 1.45261 26.7872 1.9533C26.7872 1.95331 26.7872 1.95332 26.7872 1.95333L14.1246 14.6162C14.1098 14.6294 14.0917 14.6472 14.0729 14.6697L14.0285 14.7231L14.0002 14.7865L13.0831 16.8466L12.5534 18.0364L13.7432 17.5067L15.8034 16.5896Z"/>
            </g>
            <defs>
            <clipPath id="clip0_102_5">
            <rect width="30" height="30"/>
            </clipPath>
            </defs>
        </symbol>

        <symbol id="icon-close" viewBox="0 0 31 31" xmlns="http://www.w3.org/2000/svg">
            <path d="M31 15.5C31 24.0604 24.0604 31 15.5 31C6.93959 31 0 24.0604 0 15.5C0 6.93959 6.93959 0 15.5 0C24.0604 0 31 6.93959 31 15.5ZM1.00336 15.5C1.00336 23.5063 7.49373 29.9966 15.5 29.9966C23.5063 29.9966 29.9966 23.5063 29.9966 15.5C29.9966 7.49373 23.5063 1.00336 15.5 1.00336C7.49373 1.00336 1.00336 7.49373 1.00336 15.5Z"/>
            <rect x="8.28247" y="8.98959" width="1" height="18" rx="0.5" transform="rotate(-45 8.28247 8.98959)"/>
            <rect x="21.0104" y="8.28247" width="1" height="18" rx="0.5" transform="rotate(45 21.0104 8.28247)"/>
        </symbol>

        <symbol id="icon-zoom" viewBox="0 0 30 30" xmlns="http://www.w3.org/2000/svg">
            <path d="M13.963 0.0582047C13.0197 0.181252 11.9005 0.556252 11.0509 1.04258C7.08411 3.31016 5.82434 8.43125 8.297 12.2691C8.672 12.8551 9.29309 13.5758 9.77356 13.9742C9.99622 14.1617 10.1661 14.3316 10.1368 14.3492C10.1134 14.3668 9.7677 14.5133 9.36926 14.6656C7.5177 15.3922 5.90637 16.4293 4.45325 17.8355C2.58411 19.6344 1.31849 21.6441 0.509892 24.0816C-0.128779 26.0094 -0.158076 26.9352 0.369267 28.0191C0.71497 28.7223 1.38294 29.3668 2.09778 29.6832C2.80091 29.9996 2.70716 29.9996 9.46887 29.982L15.7267 29.9645L15.9669 29.8063C16.3302 29.566 16.4825 29.2789 16.4825 28.8219C16.4825 28.3648 16.3302 28.0777 15.9669 27.8375L15.7267 27.6793L9.45715 27.65C3.75013 27.6207 3.16419 27.609 3.00598 27.5211C2.61341 27.3102 2.33216 26.859 2.33216 26.4547C2.33216 26.191 2.62513 25.066 2.8595 24.4273C3.11731 23.7125 3.79114 22.3707 4.18958 21.7789C5.51966 19.7926 7.25989 18.2633 9.32825 17.2555C11.0861 16.3941 12.6154 16.025 14.7833 15.9313C15.463 15.902 16.2247 15.8375 16.4825 15.7906C18.9142 15.316 21.0118 13.7223 22.1251 11.5016C22.3712 11.0094 22.6876 10.0836 22.8165 9.45664C22.963 8.7418 22.9689 7.2125 22.8224 6.48594C22.3009 3.85508 20.5489 1.69297 18.0997 0.632423C16.8458 0.0933609 15.3458 -0.111717 13.963 0.0582047ZM16.3419 2.50742C17.3907 2.77695 18.2111 3.25156 18.9728 4.03086C19.7286 4.79258 20.215 5.65977 20.4786 6.70859C20.6193 7.26523 20.6193 8.65977 20.4786 9.21641C20.0392 10.9625 18.797 12.4508 17.2091 13.1246C13.9864 14.4957 10.3595 12.6559 9.49817 9.21641C9.35754 8.65977 9.35754 7.26523 9.49817 6.70859C9.7677 5.64219 10.2482 4.78672 11.0275 4.00156C11.9532 3.08164 12.8146 2.64805 14.2853 2.37266C14.631 2.3082 15.9083 2.39024 16.3419 2.50742Z"/>
            <path d="M19.629 18.3395C19.3536 18.4215 18.9904 18.8023 18.9083 19.107C18.7736 19.6285 18.9786 20.1734 19.424 20.4488L19.6466 20.5894H24.422H29.1974L29.42 20.4488C29.5431 20.3785 29.7072 20.2203 29.7833 20.1031C29.9064 19.9215 29.9298 19.8219 29.9298 19.4469C29.9298 19.0719 29.9064 18.9723 29.7833 18.7906C29.7072 18.6734 29.5431 18.5152 29.42 18.4449L29.1974 18.3043L24.5099 18.2926C21.6564 18.2867 19.7462 18.3043 19.629 18.3395Z"/>
            <path d="M19.629 23.027C19.3536 23.109 18.9904 23.4898 18.9083 23.7945C18.7736 24.316 18.9786 24.8609 19.424 25.1363L19.6466 25.2769H24.422H29.1974L29.42 25.1363C29.5431 25.066 29.7072 24.9078 29.7833 24.7906C29.9064 24.609 29.9298 24.5094 29.9298 24.1344C29.9298 23.7594 29.9064 23.6598 29.7833 23.4781C29.7072 23.3609 29.5431 23.2027 29.42 23.1324L29.1974 22.9918L24.5099 22.9801C21.6564 22.9742 19.7462 22.9918 19.629 23.027Z"/>
            <path d="M19.629 27.7145C19.3536 27.7965 18.9904 28.1773 18.9083 28.482C18.7736 29.0035 18.9786 29.5484 19.424 29.8238L19.6466 29.9644H24.422H29.1974L29.42 29.8238C29.5431 29.7535 29.7072 29.5953 29.7833 29.4781C29.9064 29.2965 29.9298 29.1969 29.9298 28.8219C29.9298 28.4469 29.9064 28.3473 29.7833 28.1656C29.7072 28.0484 29.5431 27.8902 29.42 27.8199L29.1974 27.6793L24.5099 27.6676C21.6564 27.6617 19.7462 27.6793 19.629 27.7145Z"/>
        </symbol>

        <symbol id="icon-phone" viewBox="0 0 30 30" xmlns="http://www.w3.org/2000/svg">
            <path d="M2.31818 2.31818C1.02273 3.61364 0 5.18182 0 5.86364C0.0681818 12.8864 17.1136 29.9318 24.0682 30C25.6364 30 30 25.7727 30 24.2727C30 23.6591 28.2955 22.0909 26.25 20.6591C22.5 18.2045 22.4318 18.2045 20.1818 19.2955L17.9318 20.3182L13.7727 16.1591L9.68182 11.9318L10.7727 9.75C11.7955 7.56818 11.7955 7.5 9.34091 3.75C7.90909 1.70454 6.34091 -8.9407e-07 5.72727 -8.9407e-07C5.11364 -8.9407e-07 3.61364 1.02273 2.31818 2.31818Z" />
        </symbol>

        <symbol id="icon-sms" viewBox="0 0 30 30" xmlns="http://www.w3.org/2000/svg">
            <path d="M1.38462 1.49621C-0.461538 3.49117 -0.461538 21.4457 1.38462 23.4407C2.19231 24.3135 3.69231 24.9369 4.84615 24.9369C7.26923 24.9369 7.5 26.3084 5.53846 28.4281C3.11538 31.0464 7.38462 30.1737 10.7308 27.4306C12.9231 25.5603 15.3462 24.9369 20.4231 24.9369C24.2308 24.9369 27.8077 24.3135 28.6154 23.4407C29.4231 22.5679 30 18.2039 30 12.4685C30 6.73296 29.4231 2.36901 28.6154 1.49621C26.7692 -0.498738 3.23077 -0.498738 1.38462 1.49621ZM9.92308 11.3463C11.0769 13.4659 8.42308 15.8349 6.80769 14.0894C5.42308 12.5931 6.34615 9.97476 8.07692 9.97476C8.65385 9.97476 9.46154 10.5982 9.92308 11.3463ZM16.8462 11.3463C18 13.4659 15.3462 15.8349 13.7308 14.0894C12.3462 12.5931 13.2692 9.97476 15 9.97476C15.5769 9.97476 16.3846 10.5982 16.8462 11.3463ZM23.7692 11.3463C24.9231 13.4659 22.2692 15.8349 20.6538 14.0894C19.2692 12.5931 20.1923 9.97476 21.9231 9.97476C22.5 9.97476 23.3077 10.5982 23.7692 11.3463Z"/>
        </symbol>

        <symbol id="icon-sort-up" viewBox="0 0 12 27" xmlns="http://www.w3.org/2000/svg">
            <path fill-rule="evenodd" clip-rule="evenodd" d="M0.937761 7.49957H3.75026V25.3121C3.75026 25.5607 3.84903 25.7992 4.02485 25.975C4.20066 26.1508 4.43912 26.2496 4.68776 26.2496H6.56276C6.8114 26.2496 7.04986 26.1508 7.22567 25.975C7.40149 25.7992 7.50026 25.5607 7.50026 25.3121V7.49957H10.3128C11.1454 7.49957 11.5655 6.48941 10.9755 5.89937L6.28796 0.27437C6.11216 0.0986876 5.8738 0 5.62526 0C5.37673 0 5.13836 0.0986876 4.96257 0.27437L0.275066 5.89937C-0.313216 6.48824 0.104558 7.49957 0.937761 7.49957Z"/>
        </symbol>

        <symbol id="icon-arrow-left" viewBox="0 0 25 30" xmlns="http://www.w3.org/2000/svg">
            <path d="M23.5955 27.553C24.7732 28.2073 24.3086 30 22.9614 30V30C22.7249 30 22.4929 29.9358 22.29 29.8142L1.75 17.5V17.5C-0.0339469 16.3107 -0.0339474 13.6893 1.75 12.5V12.5L22.29 0.185823C22.4929 0.0642256 22.7249 -1.90735e-06 22.9614 -1.90735e-06V-1.90735e-06C24.3086 -1.90735e-06 24.7732 1.79268 23.5955 2.44696L5.5 12.5V12.5C3.71605 13.6893 3.71605 16.3107 5.5 17.5V17.5L23.5955 27.553Z"/>
        </symbol>

        <symbol id="icon-arrow-right" viewBox="0 0 25 30" xmlns="http://www.w3.org/2000/svg">
            <path d="M1.40453 2.44696C0.226832 1.79268 0.691365 0 2.03861 0V0C2.27509 0 2.50713 0.0642278 2.70996 0.185825L23.25 12.5V12.5C25.0339 13.6893 25.0339 16.3107 23.25 17.5V17.5L2.70996 29.8142C2.50713 29.9358 2.27509 30 2.03861 30V30C0.691364 30 0.226832 28.2073 1.40454 27.553L19.5 17.5V17.5C21.2839 16.3107 21.2839 13.6893 19.5 12.5V12.5L1.40453 2.44696Z"/>
        </symbol>

        <symbol id="icon-arrow-down" viewBox="0 0 30 25" xmlns="http://www.w3.org/2000/svg">
            <path d="M27.553 1.40453C28.2073 0.226832 30 0.691365 30 2.03861V2.03861C30 2.27509 29.9358 2.50713 29.8142 2.70996L17.5 23.25V23.25C16.3107 25.0339 13.6893 25.0339 12.5 23.25V23.25L0.185823 2.70996C0.0642256 2.50713 -1.90735e-06 2.27509 -1.90735e-06 2.03861V2.03861C-1.90735e-06 0.691364 1.79268 0.226832 2.44696 1.40454L12.5 19.5V19.5C13.6893 21.2839 16.3107 21.2839 17.5 19.5V19.5L27.553 1.40453Z"/>
        </symbol>

        <symbol id="icon-bring-on-ground" viewBox="0 0 40 40" xmlns="http://www.w3.org/2000/svg">
            <rect x="2" width="21" height="2" />
            <rect x="2" y="23" width="23" height="2" />
            <path d="M0 2C0 0.89543 0.895431 0 2 0V0V25V25C0.895431 25 0 24.1046 0 23V2Z" />
            <path d="M23 0V0C24.1046 0 25 0.89543 25 2V25H23V0Z" />
            <rect x="25" y="10" width="15" height="17" rx="1" />
            <rect x="23" y="25" width="17" height="15" rx="1" />
            <rect x="10" y="25" width="15" height="15" rx="1" />
        </symbol>

        <symbol id="icon-zoom-2" viewBox="0 0 30 30" xmlns="http://www.w3.org/2000/svg">
            <path d="M10.143 0.0304375C8.13074 0.224167 6.3296 0.875414 4.77459 1.95494C0.726376 4.77102 -0.974849 9.85185 0.556406 14.5221C1.61826 17.7664 4.21137 20.4007 7.44994 21.5094C8.79935 21.973 9.93766 22.1372 11.4628 22.0903C13.0821 22.0434 14.3377 21.7324 15.8513 21.005L16.6609 20.6178L21.2489 25.2C23.7716 27.7228 25.9307 29.8291 26.0422 29.8876C26.3413 30.046 26.9926 30.0341 27.3036 29.8699C27.6438 29.6881 29.6445 27.6463 29.7617 27.3649C29.8909 27.0539 29.879 26.5376 29.7325 26.215C29.6445 26.0097 28.5768 24.9125 25.0623 21.3982L20.5099 16.8395L20.8971 16.0884C21.6775 14.5513 22.0412 13.1608 22.0939 11.4888C22.1466 9.93409 21.9824 8.80766 21.513 7.44637C19.976 2.97567 15.6694 -0.0691681 10.9819 0.00119591C10.6358 0.00119591 10.2545 0.0188618 10.143 0.0304375ZM12.7949 2.92298C14.4199 3.26322 15.8339 4.03174 17.0073 5.21118C18.2744 6.47834 19.0606 7.99802 19.3658 9.75803C19.5184 10.6499 19.4889 12.0344 19.307 12.8674C18.5501 16.241 15.9862 18.7287 12.5777 19.3915C11.7915 19.5441 10.2545 19.5264 9.45638 19.3623C6.26472 18.6818 3.77122 16.3113 2.98533 13.2196C2.26372 10.38 3.02646 7.46404 5.03868 5.36957C6.40575 3.93792 8.08962 3.08747 10.0842 2.8057C10.6885 2.72346 12.1436 2.78225 12.7949 2.92298Z"/>
        </symbol>

        <symbol id="icon-pencil" viewBox="0 0 20 20" xmlns="http://www.w3.org/2000/svg">
            <path d="M17.2938 4.76627L6.12192 16.0788L3.32505 13.1491L14.45 1.88346C14.8016 1.52799 15.4188 1.53189 15.7665 1.88736L17.2977 3.46158C17.6493 3.82096 17.6454 4.40689 17.2938 4.76627V4.76627ZM2.61801 14.7038L4.53598 16.7155L1.9227 17.2819L2.61801 14.7038V14.7038ZM18.4305 2.3483L16.8993 0.774082C16.3797 0.195957 14.7547 -0.624355 13.325 0.758457L1.65708 12.5749C1.55942 12.6725 1.48911 12.7936 1.45395 12.9264L0.0477023 18.1256C-0.131985 18.7897 0.211765 19.1999 0.813327 19.1296C0.868015 19.1217 6.31723 17.9538 6.31723 17.9538C6.46567 17.9225 6.60239 17.8444 6.71176 17.735L18.4149 5.88346C19.3758 4.91471 19.3836 3.32877 18.4305 2.3483V2.3483Z"/>
        </symbol>

        <symbol id="icon-settings" xmlns="http://www.w3.org/2000/svg" viewBox="0 0 489.802 489.802">
                <path d="M20.701,281.901l32.1,0.2c4.8,24.7,14.3,48.7,28.7,70.5l-22.8,22.6c-8.2,8.1-8.2,21.2-0.2,29.4l24.6,24.9
                c8.1,8.2,21.2,8.2,29.4,0.2l22.8-22.6c21.6,14.6,45.5,24.5,70.2,29.5l-0.2,32.1c-0.1,11.5,9.2,20.8,20.7,20.9l35,0.2
                c11.5,0.1,20.8-9.2,20.9-20.7l0.2-32.1c24.7-4.8,48.7-14.3,70.5-28.7l22.6,22.8c8.1,8.2,21.2,8.2,29.4,0.2l24.9-24.6
                c8.2-8.1,8.2-21.2,0.2-29.4l-22.6-22.8c14.6-21.6,24.5-45.5,29.5-70.2l32.1,0.2c11.5,0.1,20.8-9.2,20.9-20.7l0.2-35
                c0.1-11.5-9.2-20.8-20.7-20.9l-32.1-0.2c-4.8-24.7-14.3-48.7-28.7-70.5l22.8-22.6c8.2-8.1,8.2-21.2,0.2-29.4l-24.6-24.9
                c-8.1-8.2-21.2-8.2-29.4-0.2l-22.8,22.6c-21.6-14.6-45.5-24.5-70.2-29.5l0.2-32.1c0.1-11.5-9.2-20.8-20.7-20.9l-35-0.2
                c-11.5-0.1-20.8,9.2-20.9,20.7l-0.3,32.1c-24.8,4.8-48.8,14.3-70.5,28.7l-22.6-22.8c-8.1-8.2-21.2-8.2-29.4-0.2l-24.8,24.6
                c-8.2,8.1-8.2,21.2-0.2,29.4l22.6,22.8c-14.6,21.6-24.5,45.5-29.5,70.2l-32.1-0.2c-11.5-0.1-20.8,9.2-20.9,20.7l-0.2,35
                C-0.099,272.401,9.201,281.801,20.701,281.901z M179.301,178.601c36.6-36.2,95.5-35.9,131.7,0.7s35.9,95.5-0.7,131.7
                s-95.5,35.9-131.7-0.7S142.701,214.801,179.301,178.601z"/>
        </symbol>

        <symbol id="icon-info" viewBox="0 0 8 30"  xmlns="http://www.w3.org/2000/svg">
            <path d="M8 4C8 6.20914 6.20914 8 4 8C1.79086 8 0 6.20914 0 4C0 1.79086 1.79086 0 4 0C6.20914 0 8 1.79086 8 4ZM1.98846 4C1.98846 5.11094 2.88906 6.01154 4 6.01154C5.11094 6.01154 6.01154 5.11094 6.01154 4C6.01154 2.88906 5.11094 1.98846 4 1.98846C2.88906 1.98846 1.98846 2.88906 1.98846 4Z" />
            <path d="M8 20C7.99997 30 8 30 4 30C0 30 0 30 6.83826e-10 20C1.36767e-09 10 0 10 4 10C8 10 8.00003 10 8 20ZM1.50525 20C1.50525 28.0952 0.620537 28.0952 4 28.0952C7.37946 28.0952 6.50525 28.4487 6.50525 20C6.50525 11.5513 7.37946 11.9048 4 11.9048C0.620537 11.9048 1.50525 11.5513 1.50525 20Z" />
        </symbol>

        <symbol id="icon-calendar-today" viewBox="0 0 24 24" xmlns="http://www.w3.org/2000/svg">
            <path d="M15 17C16.1046 17 17 16.1046 17 15C17 13.8954 16.1046 13 15 13C13.8954 13 13 13.8954 13 15C13 16.1046 13.8954 17 15 17Z"/>
            <path fill-rule="evenodd" clip-rule="evenodd" d="M6 3C4.34315 3 3 4.34315 3 6V18C3 19.6569 4.34315 21 6 21H18C19.6569 21 21 19.6569 21 18V6C21 4.34315 19.6569 3 18 3H6ZM5 18V7H19V18C19 18.5523 18.5523 19 18 19H6C5.44772 19 5 18.5523 5 18Z"/>
        </symbol>

        <symbol id="icon-cash" viewBox="0 0 502.685 502.685" xmlns="http://www.w3.org/2000/svg">
		    <path d="M482.797,276.924c4.53-5.824,6.73-13.331,4.724-20.988L428.05,30.521 c-3.451-13.029-16.847-20.837-29.854-17.386L18.184,113.331C5.22,116.761-2.61,130.2,0.798,143.207L60.269,368.6 c3.408,13.007,16.868,20.816,29.876,17.408l134.278-35.419v75.476c0,42.214,69.954,64.303,139.11,64.303 c69.113,0,139.153-22.089,139.153-64.302V311.61C502.685,297.869,495.157,286.307,482.797,276.924z M439.763,199.226l6.212,23.469 l-75.541,19.953l-6.169-23.512L439.763,199.226z M395.931,50.733l11.799,44.695l-118.014,31.148l-11.799-44.695L395.931,50.733z M342.975,224.744l6.04,22.951c-27.934,1.251-55.113,6.126-76.943,14.452l-4.616-17.429L342.975,224.744z M79.984,319.224 l-6.169-23.426l75.519-19.975l6.212,23.555L79.984,319.224z M170.625,270.237l75.476-19.953l5.716,21.506 c-1.834,1.122-3.559,2.286-5.242,3.473l-69.781,18.421L170.625,270.237z M477.491,424.209c0,24.612-50.993,44.544-113.958,44.544 c-62.9,0-113.937-19.953-113.937-44.544v-27.718c0-0.928,0.539-1.769,0.69-2.653c3.602,23.34,52.654,41.847,113.247,41.847 c60.614,0,109.687-18.508,113.268-41.847c0.151,0.884,0.69,1.726,0.69,2.653V424.209z M477.491,369.678 c0,24.591-50.993,44.522-113.958,44.522c-62.9,0-113.937-19.931-113.937-44.522V341.96c0-0.906,0.539-1.769,0.69-2.653 c3.602,23.318,52.654,41.869,113.247,41.869c60.614,0,109.687-18.551,113.268-41.869c0.151,0.884,0.69,1.747,0.69,2.653V369.678z M363.532,356.11c-62.9,0-113.937-19.931-113.937-44.501c0-24.569,51.036-44.5,113.937-44.5c62.965,0,113.958,19.931,113.958,44.5 C477.491,336.179,426.497,356.11,363.532,356.11z"/>        
        </symbol>

    </defs>
</svg>